<svg width="20" height="20" viewBox="0 0 20 20" fill="none" xmlns="http://www.w3.org/2000/svg">
<g clip-path="url(#clip0_102_612)">
<path d="M5.83333 0H3.33333C2.44928 0 1.60143 0.35119 0.976311 0.976311C0.35119 1.60143 0 2.44928 0 3.33333L0 5.83333C0 6.71739 0.35119 7.56524 0.976311 8.19036C1.60143 8.81548 2.44928 9.16667 3.33333 9.16667H5.83333C6.71739 9.16667 7.56524 8.81548 8.19036 8.19036C8.81548 7.56524 9.16667 6.71739 9.16667 5.83333V3.33333C9.16667 2.44928 8.81548 1.60143 8.19036 0.976311C7.56524 0.35119 6.71739 0 5.83333 0V0ZM7.5 5.83333C7.5 6.27536 7.32441 6.69928 7.01185 7.01185C6.69928 7.32441 6.27536 7.5 5.83333 7.5H3.33333C2.89131 7.5 2.46738 7.32441 2.15482 7.01185C1.84226 6.69928 1.66667 6.27536 1.66667 5.83333V3.33333C1.66667 2.89131 1.84226 2.46738 2.15482 2.15482C2.46738 1.84226 2.89131 1.66667 3.33333 1.66667H5.83333C6.27536 1.66667 6.69928 1.84226 7.01185 2.15482C7.32441 2.46738 7.5 2.89131 7.5 3.33333V5.83333Z" fill="#EEEEEE"/>
<path d="M16.6667 0H14.1667C13.2826 0 12.4347 0.35119 11.8096 0.976312C11.1845 1.60143 10.8333 2.44928 10.8333 3.33334V5.83334C10.8333 6.71739 11.1845 7.56524 11.8096 8.19036C12.4347 8.81548 13.2826 9.16667 14.1667 9.16667H16.6667C17.5507 9.16667 18.3986 8.81548 19.0237 8.19036C19.6488 7.56524 20 6.71739 20 5.83334V3.33334C20 2.44928 19.6488 1.60143 19.0237 0.976312C18.3986 0.35119 17.5507 0 16.6667 0V0ZM18.3333 5.83334C18.3333 6.27537 18.1577 6.69929 17.8452 7.01185C17.5326 7.32441 17.1087 7.50001 16.6667 7.50001H14.1667C13.7246 7.50001 13.3007 7.32441 12.9881 7.01185C12.6756 6.69929 12.5 6.27537 12.5 5.83334V3.33334C12.5 2.89131 12.6756 2.46738 12.9881 2.15482C13.3007 1.84226 13.7246 1.66667 14.1667 1.66667H16.6667C17.1087 1.66667 17.5326 1.84226 17.8452 2.15482C18.1577 2.46738 18.3333 2.89131 18.3333 3.33334V5.83334Z" fill="#EEEEEE"/>
<path d="M5.83334 10.8333H3.33334C2.44928 10.8333 1.60143 11.1844 0.976312 11.8096C0.35119 12.4347 0 13.2825 0 14.1666L0 16.6666C0 17.5507 0.35119 18.3985 0.976312 19.0236C1.60143 19.6487 2.44928 19.9999 3.33334 19.9999H5.83334C6.71739 19.9999 7.56524 19.6487 8.19036 19.0236C8.81548 18.3985 9.16667 17.5507 9.16667 16.6666V14.1666C9.16667 13.2825 8.81548 12.4347 8.19036 11.8096C7.56524 11.1844 6.71739 10.8333 5.83334 10.8333ZM7.50001 16.6666C7.50001 17.1086 7.32441 17.5325 7.01185 17.8451C6.69929 18.1577 6.27537 18.3333 5.83334 18.3333H3.33334C2.89131 18.3333 2.46738 18.1577 2.15482 17.8451C1.84226 17.5325 1.66667 17.1086 1.66667 16.6666V14.1666C1.66667 13.7246 1.84226 13.3006 2.15482 12.9881C2.46738 12.6755 2.89131 12.4999 3.33334 12.4999H5.83334C6.27537 12.4999 6.69929 12.6755 7.01185 12.9881C7.32441 13.3006 7.50001 13.7246 7.50001 14.1666V16.6666Z" fill="#EEEEEE"/>
<path d="M16.6667 10.8333H14.1667C13.2826 10.8333 12.4347 11.1844 11.8096 11.8096C11.1845 12.4347 10.8333 13.2825 10.8333 14.1666V16.6666C10.8333 17.5507 11.1845 18.3985 11.8096 19.0236C12.4347 19.6487 13.2826 19.9999 14.1667 19.9999H16.6667C17.5507 19.9999 18.3986 19.6487 19.0237 19.0236C19.6488 18.3985 20 17.5507 20 16.6666V14.1666C20 13.2825 19.6488 12.4347 19.0237 11.8096C18.3986 11.1844 17.5507 10.8333 16.6667 10.8333ZM18.3333 16.6666C18.3333 17.1086 18.1577 17.5325 17.8452 17.8451C17.5326 18.1577 17.1087 18.3333 16.6667 18.3333H14.1667C13.7246 18.3333 13.3007 18.1577 12.9881 17.8451C12.6756 17.5325 12.5 17.1086 12.5 16.6666V14.1666C12.5 13.7246 12.6756 13.3006 12.9881 12.9881C13.3007 12.6755 13.7246 12.4999 14.1667 12.4999H16.6667C17.1087 12.4999 17.5326 12.6755 17.8452 12.9881C18.1577 13.3006 18.3333 13.7246 18.3333 14.1666V16.6666Z" fill="#EEEEEE"/>
</g>
<defs>
<clipPath id="clip0_102_612">
<rect width="20" height="20" fill="white"/>
</clipPath>
</defs>
</svg>
