<svg width="20" height="20" viewBox="0 0 20 20" fill="none" xmlns="http://www.w3.org/2000/svg">
<path d="M5.34168 13.8215H14.6583C14.8231 13.8208 14.9841 13.7713 15.1207 13.6792C15.2574 13.587 15.3636 13.4564 15.4261 13.3039C15.4885 13.1514 15.5043 12.9838 15.4715 12.8223C15.4387 12.6607 15.3587 12.5126 15.2417 12.3965L10.5917 7.74654C10.5142 7.66843 10.422 7.60644 10.3205 7.56413C10.2189 7.52182 10.11 7.50004 10 7.50004C9.89 7.50004 9.78108 7.52182 9.67953 7.56413C9.57798 7.60644 9.48581 7.66843 9.40834 7.74654L4.75835 12.3965C4.64133 12.5126 4.56135 12.6607 4.52853 12.8223C4.49571 12.9838 4.51152 13.1514 4.57396 13.3039C4.63639 13.4564 4.74266 13.587 4.87931 13.6792C5.01596 13.7713 5.17687 13.8208 5.34168 13.8215Z" fill="#1A1C1E"/>
</svg>
