<svg width="7" height="12" viewBox="0 0 7 12" fill="none" xmlns="http://www.w3.org/2000/svg">
<path d="M1.16665 4.23335L4.99165 0.408343C5.14778 0.253134 5.35899 0.166016 5.57915 0.166016C5.7993 0.166016 6.01051 0.253134 6.16665 0.408343C6.24476 0.485812 6.30675 0.57798 6.34906 0.679529C6.39136 0.781078 6.41315 0.89 6.41315 1.00001C6.41315 1.11002 6.39136 1.21894 6.34906 1.32049C6.30675 1.42204 6.24476 1.51421 6.16665 1.59168L2.33331 5.40835C2.25521 5.48581 2.19321 5.57798 2.15091 5.67953C2.1086 5.78108 2.08682 5.89 2.08682 6.00001C2.08682 6.11002 2.1086 6.21894 2.15091 6.32049C2.19321 6.42204 2.25521 6.51421 2.33331 6.59168L6.16665 10.4083C6.32357 10.5642 6.41216 10.7759 6.41295 10.9971C6.41373 11.2182 6.32663 11.4306 6.17081 11.5875C6.015 11.7444 5.80323 11.833 5.58209 11.8338C5.36096 11.8346 5.14857 11.7475 4.99165 11.5917L1.16665 7.76668C0.69848 7.29793 0.435514 6.66252 0.435514 6.00001C0.435514 5.33751 0.69848 4.7021 1.16665 4.23335Z" fill="#EEEEEE"/>
</svg>
