<svg width="19" height="19" viewBox="0 0 19 19" fill="none" xmlns="http://www.w3.org/2000/svg">
<path d="M18.1953 6.91964C17.8853 6.61129 17.3841 6.61267 17.0757 6.92265L7.55888 16.491C6.32419 17.7257 4.31886 17.7257 3.08187 16.4893C1.8458 15.2526 1.8458 13.2473 3.08202 12.0111L12.8806 2.16103C13.6514 1.39021 14.9047 1.39021 15.6777 2.1627C16.4506 2.93556 16.4506 4.18866 15.6776 4.96174L7.56037 13.0789C7.55985 13.0794 7.5594 13.08 7.55888 13.0805C7.24964 13.388 6.74988 13.3876 6.44127 13.079C6.13214 12.7699 6.13214 12.2689 6.44127 11.9597L10.3594 8.04082C10.6685 7.73162 10.6685 7.23033 10.3593 6.9212C10.0501 6.61207 9.54877 6.61211 9.23964 6.92131L5.32158 10.8402C4.39416 11.7676 4.39416 13.2711 5.32166 14.1986C6.24912 15.1261 7.75267 15.1261 8.68017 14.1986C8.68124 14.1975 8.6821 14.1964 8.68314 14.1953L16.7971 6.08128C18.1885 4.68987 18.1885 2.43424 16.7971 1.04282C15.4055 -0.347771 13.1501 -0.347771 11.7595 1.04282L1.96092 10.8929C0.107857 12.746 0.107857 15.7536 1.96225 17.6089C3.81788 19.4636 6.82551 19.4636 8.68002 17.6091L18.1984 8.03926C18.5067 7.72924 18.5053 7.22799 18.1953 6.91964Z" fill="#4A4A4A"/>
</svg>
