<svg width="41" height="45" viewBox="0 0 41 45" fill="none" xmlns="http://www.w3.org/2000/svg">
<path d="M0.577445 12.2703C0.365445 12.5256 0.172772 12.7696 0 12.9999C0.185533 12.7349 0.378086 12.4923 0.577445 12.2703C4.04659 8.09249 12.6911 0.876884 24 0.49992C39 -7.98702e-05 43 12.4999 40 17.9999C39.1697 19.5221 36.8842 20.0485 33.97 20.2788C32.3616 24.0401 27.2615 26.876 24 30.4999C20.4 34.4999 22.5 41.8333 24 44.9999C19.6667 43.6666 11.4 38.4999 13 28.4999C14.4465 19.4594 26.3546 20.8805 33.97 20.2788C34.5808 18.8505 34.688 17.2888 34 15.4999C31.5 8.99994 23.5 6.99994 16.5 8.99994C9.87107 10.8939 4.13892 8.30393 0.577445 12.2703Z" fill="#EEEEEE"/>
</svg>
