<svg width="19" height="19" viewBox="0 0 19 19" fill="none" xmlns="http://www.w3.org/2000/svg">
<path d="M2.92302 18.2758H11.6923C12.2737 18.2758 12.8313 18.0448 13.2425 17.6336C13.6536 17.2225 13.8846 16.6649 13.8846 16.0835C14.466 16.0835 15.0236 15.8525 15.4348 15.4413C15.8459 15.0302 16.0769 14.4726 16.0769 13.8911V2.92961C16.0769 2.34818 15.8459 1.79055 15.4348 1.37942C15.0236 0.968279 14.466 0.737305 13.8846 0.737305H5.11533C4.53389 0.737305 3.97627 0.968279 3.56513 1.37942C3.154 1.79055 2.92302 2.34818 2.92302 2.92961C2.34159 2.92961 1.78396 3.16059 1.37283 3.57172C0.961688 3.98286 0.730713 4.54048 0.730713 5.12192V16.0835C0.730713 16.6649 0.961688 17.2225 1.37283 17.6336C1.78396 18.0448 2.34159 18.2758 2.92302 18.2758ZM5.11533 2.19884H13.8846C14.0784 2.19884 14.2643 2.27583 14.4013 2.41288C14.5383 2.54993 14.6153 2.7358 14.6153 2.92961V13.8911C14.6153 14.085 14.5383 14.2708 14.4013 14.4079C14.2643 14.5449 14.0784 14.6219 13.8846 14.6219V5.12192C13.8846 4.54048 13.6536 3.98286 13.2425 3.57172C12.8313 3.16059 12.2737 2.92961 11.6923 2.92961H4.38456C4.38456 2.7358 4.46155 2.54993 4.5986 2.41288C4.73564 2.27583 4.92152 2.19884 5.11533 2.19884ZM2.19225 5.12192C2.19225 4.92811 2.26924 4.74223 2.40629 4.60519C2.54334 4.46814 2.72921 4.39115 2.92302 4.39115H11.6923C11.8861 4.39115 12.0719 4.46814 12.209 4.60519C12.346 4.74223 12.423 4.92811 12.423 5.12192V16.0835C12.423 16.2773 12.346 16.4631 12.209 16.6002C12.0719 16.7372 11.8861 16.8142 11.6923 16.8142H2.92302C2.72921 16.8142 2.54334 16.7372 2.40629 16.6002C2.26924 16.4631 2.19225 16.2773 2.19225 16.0835V5.12192Z" fill="#5B5B5B"/>
</svg>
