<svg width="24" height="24" viewBox="0 0 24 24" fill="none" xmlns="http://www.w3.org/2000/svg">
<g clip-path="url(#clip0_250_459)">
<path d="M2.49998 10.5C1.122 10.5 0 11.622 0 13V21C0 22.378 1.122 23.5 2.49998 23.5H5.49998C6.063 23.5 6.58097 23.31 6.99998 22.994V10.5H2.49998Z" fill="#5B5B5B"/>
<path d="M24 14.25C24 13.649 23.762 13.089 23.349 12.676C23.816 12.165 24.054 11.48 23.989 10.767C23.872 9.49597 22.727 8.49997 21.381 8.49997H15.204C15.51 7.57095 16 5.86799 16 4.49999C16 2.33098 14.157 0.5 13 0.5C11.961 0.5 11.219 1.085 11.187 1.109C11.069 1.20402 11 1.34802 11 1.49998V4.89097L8.12 11.13L8 11.191V21.909C8.81399 22.293 9.84397 22.5 10.5 22.5H19.679C20.768 22.5 21.721 21.766 21.945 20.753C22.06 20.232 21.993 19.707 21.764 19.251C22.503 18.879 23 18.118 23 17.25C23 16.896 22.919 16.557 22.765 16.25C23.504 15.878 24 15.117 24 14.25Z" fill="#5B5B5B"/>
</g>
<defs>
<clipPath id="clip0_250_459">
<rect width="24" height="24" fill="white"/>
</clipPath>
</defs>
</svg>
