<svg width="20" height="20" viewBox="0 0 20 20" fill="none" xmlns="http://www.w3.org/2000/svg">
<path d="M9.56333 12.5C9.34232 12.5 9.13036 12.5878 8.97408 12.7441C8.8178 12.9004 8.73 13.1123 8.73 13.3333V15.8333C8.73 16.4964 8.46661 17.1323 7.99777 17.6011C7.52893 18.0699 6.89304 18.3333 6.23 18.3333H4.16667C3.50363 18.3333 2.86774 18.0699 2.3989 17.6011C1.93006 17.1323 1.66667 16.4964 1.66667 15.8333V4.16667C1.66667 3.50363 1.93006 2.86774 2.3989 2.3989C2.86774 1.93006 3.50363 1.66667 4.16667 1.66667H6.23C6.89304 1.66667 7.52893 1.93006 7.99777 2.3989C8.46661 2.86774 8.73 3.50363 8.73 4.16667V6.66667C8.73 6.88768 8.8178 7.09964 8.97408 7.25592C9.13036 7.4122 9.34232 7.5 9.56333 7.5C9.78435 7.5 9.99631 7.4122 10.1526 7.25592C10.3089 7.09964 10.3967 6.88768 10.3967 6.66667V4.16667C10.3953 3.062 9.95593 2.00296 9.17482 1.22185C8.3937 0.440735 7.33466 0.00132321 6.23 0H4.16667C3.062 0.00132321 2.00296 0.440735 1.22185 1.22185C0.440735 2.00296 0.00132321 3.062 0 4.16667L0 15.8333C0.00132321 16.938 0.440735 17.997 1.22185 18.7782C2.00296 19.5593 3.062 19.9987 4.16667 20H6.23C7.33466 19.9987 8.3937 19.5593 9.17482 18.7782C9.95593 17.997 10.3953 16.938 10.3967 15.8333V13.3333C10.3967 13.1123 10.3089 12.9004 10.1526 12.7441C9.99631 12.5878 9.78435 12.5 9.56333 12.5Z" fill="#D15537"/>
<path d="M19.0559 8.23233L15.2342 4.41066C15.1573 4.33107 15.0654 4.26758 14.9637 4.22391C14.862 4.18023 14.7527 4.15724 14.642 4.15628C14.5314 4.15532 14.4216 4.1764 14.3192 4.21831C14.2168 4.26021 14.1238 4.32208 14.0455 4.40033C13.9673 4.47857 13.9054 4.57162 13.8635 4.67403C13.8216 4.77644 13.8005 4.88618 13.8015 4.99683C13.8024 5.10747 13.8254 5.21682 13.8691 5.31849C13.9128 5.42016 13.9763 5.51212 14.0559 5.58899L17.6075 9.14149L5.00002 9.16649C4.77901 9.16649 4.56705 9.25429 4.41076 9.41057C4.25448 9.56685 4.16669 9.77881 4.16669 9.99983C4.16669 10.2208 4.25448 10.4328 4.41076 10.5891C4.56705 10.7454 4.77901 10.8332 5.00002 10.8332L17.6567 10.8073L14.0542 14.4107C13.9746 14.4875 13.9111 14.5795 13.8674 14.6812C13.8238 14.7828 13.8008 14.8922 13.7998 15.0028C13.7989 15.1135 13.8199 15.2232 13.8618 15.3256C13.9037 15.428 13.9656 15.5211 14.0439 15.5993C14.1221 15.6776 14.2151 15.7394 14.3176 15.7813C14.42 15.8232 14.5297 15.8443 14.6404 15.8434C14.751 15.8424 14.8604 15.8194 14.962 15.7757C15.0637 15.7321 15.1557 15.6686 15.2325 15.589L19.0542 11.7673C19.5231 11.2987 19.7867 10.6631 19.787 10.0002C19.7873 9.33726 19.5243 8.70137 19.0559 8.23233Z" fill="#D15537"/>
</svg>
