<svg width="67" height="11" viewBox="0 0 67 11" fill="none" xmlns="http://www.w3.org/2000/svg">
<path d="M5.21468 0.878115C5.30449 0.601721 5.69551 0.601722 5.78532 0.878115L6.66747 3.59311C6.70764 3.71672 6.82282 3.80041 6.95279 3.80041H9.80751C10.0981 3.80041 10.219 4.17229 9.98384 4.34311L7.67433 6.02107C7.56918 6.09747 7.52518 6.23288 7.56535 6.35648L8.4475 9.07148C8.53731 9.34787 8.22096 9.57771 7.98585 9.40689L5.67634 7.72893C5.57119 7.65253 5.42881 7.65253 5.32366 7.72893L3.01415 9.40689C2.77904 9.57771 2.46269 9.34787 2.5525 9.07148L3.43465 6.35648C3.47482 6.23287 3.43082 6.09747 3.32567 6.02107L1.01616 4.34311C0.781044 4.17229 0.901877 3.80041 1.19249 3.80041H4.04721C4.17718 3.80041 4.29237 3.71672 4.33253 3.59311L5.21468 0.878115Z" fill="#737373"/>
<path d="M19.2147 0.878115C19.3045 0.601721 19.6955 0.601722 19.7853 0.878115L20.6675 3.59311C20.7076 3.71672 20.8228 3.80041 20.9528 3.80041H23.8075C24.0981 3.80041 24.219 4.17229 23.9838 4.34311L21.6743 6.02107C21.5692 6.09747 21.5252 6.23288 21.5653 6.35648L22.4475 9.07148C22.5373 9.34787 22.221 9.57771 21.9858 9.40689L19.6763 7.72893C19.5712 7.65253 19.4288 7.65253 19.3237 7.72893L17.0141 9.40689C16.779 9.57771 16.4627 9.34787 16.5525 9.07148L17.4347 6.35648C17.4748 6.23287 17.4308 6.09747 17.3257 6.02107L15.0162 4.34311C14.781 4.17229 14.9019 3.80041 15.1925 3.80041H18.0472C18.1772 3.80041 18.2924 3.71672 18.3325 3.59311L19.2147 0.878115Z" fill="#737373"/>
<path d="M33.2147 0.878115C33.3045 0.601721 33.6955 0.601722 33.7853 0.878115L34.6675 3.59311C34.7076 3.71672 34.8228 3.80041 34.9528 3.80041H37.8075C38.0981 3.80041 38.219 4.17229 37.9838 4.34311L35.6743 6.02107C35.5692 6.09747 35.5252 6.23288 35.5653 6.35648L36.4475 9.07148C36.5373 9.34787 36.221 9.57771 35.9858 9.40689L33.6763 7.72893C33.5712 7.65253 33.4288 7.65253 33.3237 7.72893L31.0141 9.40689C30.779 9.57771 30.4627 9.34787 30.5525 9.07148L31.4347 6.35648C31.4748 6.23287 31.4308 6.09747 31.3257 6.02107L29.0162 4.34311C28.781 4.17229 28.9019 3.80041 29.1925 3.80041H32.0472C32.1772 3.80041 32.2924 3.71672 32.3325 3.59311L33.2147 0.878115Z" fill="#737373"/>
<path d="M47.2147 0.878115C47.3045 0.601721 47.6955 0.601722 47.7853 0.878115L48.6675 3.59311C48.7076 3.71672 48.8228 3.80041 48.9528 3.80041H51.8075C52.0981 3.80041 52.219 4.17229 51.9838 4.34311L49.6743 6.02107C49.5692 6.09747 49.5252 6.23288 49.5653 6.35648L50.4475 9.07148C50.5373 9.34787 50.221 9.57771 49.9858 9.40689L47.6763 7.72893C47.5712 7.65253 47.4288 7.65253 47.3237 7.72893L45.0141 9.40689C44.779 9.57771 44.4627 9.34787 44.5525 9.07148L45.4347 6.35648C45.4748 6.23287 45.4308 6.09747 45.3257 6.02107L43.0162 4.34311C42.781 4.17229 42.9019 3.80041 43.1925 3.80041H46.0472C46.1772 3.80041 46.2924 3.71672 46.3325 3.59311L47.2147 0.878115Z" fill="#737373"/>
<path d="M61.2147 0.878115C61.3045 0.601721 61.6955 0.601722 61.7853 0.878115L62.6675 3.59311C62.7076 3.71672 62.8228 3.80041 62.9528 3.80041H65.8075C66.0981 3.80041 66.219 4.17229 65.9838 4.34311L63.6743 6.02107C63.5692 6.09747 63.5252 6.23288 63.5653 6.35648L64.4475 9.07148C64.5373 9.34787 64.221 9.57771 63.9858 9.40689L61.6763 7.72893C61.5712 7.65253 61.4288 7.65253 61.3237 7.72893L59.0141 9.40689C58.779 9.57771 58.4627 9.34787 58.5525 9.07148L59.4347 6.35648C59.4748 6.23287 59.4308 6.09747 59.3257 6.02107L57.0162 4.34311C56.781 4.17229 56.9019 3.80041 57.1925 3.80041H60.0472C60.1772 3.80041 60.2924 3.71672 60.3325 3.59311L61.2147 0.878115Z" fill="#D9D9D9"/>
</svg>
